<svg version="1" xmlns="http://www.w3.org/2000/svg" width="8333.333" height="8333.333" viewBox="0 0 6250.000000 6250.000000"><path d="M4106.5 2185.6c-86.5 4.3-148.7 12.7-218 29.4-176.2 42.5-341.6 134.6-468 260.5-113.4 113-198.4 255.9-243 408.5-20.8 71.2-32.6 140.9-37.7 222.5-2.5 41.1-1.3 109.5 2.8 155.5 12.9 145.5 56.6 280.7 131.2 406 74.7 125.4 173.1 228.5 295.1 309.2 132.9 87.9 279 141.7 438.1 161.2 42.5 5.3 75.5 7.5 123.5 8.3 155.9 2.6 301.2-24.6 435-81.4 52.4-22.2 134.2-66.6 162.6-88.2 26.6-20.1 40.7-43 42.6-69.2 1.4-19.8-5.6-43.3-19.7-66.4-6-9.8-51.5-75.1-57.6-82.5-23.9-29.5-53.6-43.2-84.7-39.1-20 2.7-35.2 9-65.3 27.3-159.6 96.9-319.3 133.2-490.6 111.7-65.9-8.2-131-26.6-190.8-53.8-140.2-63.9-268.4-191.8-334.2-333.4-35.9-77.4-56.1-158.4-62.9-253.2-2.6-36-1.4-96.2 2.7-136.5 7.9-77.3 28.6-153.7 60.2-221.7 65.8-141.6 194-269.5 334.2-333.4 41.3-18.7 89.9-34.8 134.1-44.3 46.5-10 100.5-15.5 150.9-15.6 124.9 0 252.2 36.4 377 108 35.7 20.5 52.8 26.3 77 26.3 24.5-.1 43.9-8.5 62.7-27.2 10.7-10.6 15.2-16.8 41.7-57.5 25.6-39.3 29.8-46.3 35.5-59.7 6.3-14.8 8.5-25.1 8.5-40.4.1-15.4-1.4-21.9-7.8-35-8-16.2-21.4-30.5-40.4-43.2-26.8-17.9-93.1-52.5-135.2-70.5-108.9-46.5-218.4-72-347-80.8-15.2-1.1-98.7-2.1-112.5-1.4zM1511.8 2219c-16.9 2.1-34 7.4-45.5 14.1-8.6 5-22.9 19.9-28 28.9-5.1 9.1-9.6 22.3-12 35-1.7 9.1-1.8 37.1-1.8 597.5 0 614.5-.1 595.4 4.1 636.5 7.1 69.7 24.8 140.8 50.3 201.7 42.3 101.3 111.1 194.2 192.6 259.9 96.2 77.6 218.6 128.4 349 144.8 39.6 5 57.8 6 105 6s65.4-1 105-6c135-17 258.7-69.7 358.5-152.7 19-15.8 59.2-56.1 75.4-75.6 64-76.9 109.9-164 135.5-257.4 13.2-48.1 20.8-94.3 25.3-153.2 1-13.7 1.3-132.5 1.3-604.5 0-563.1-.1-587.9-1.8-597-4.4-23-11.6-37.8-24.7-51.1-13.1-13.3-26.5-20.1-49.2-25.1-10.2-2.3-11-2.3-83.8-2.3s-73.6 0-83.8 2.3c-20.8 4.6-35 11.4-46.8 22.5-16.3 15.2-25.8 37.6-28.4 66.7-.6 7.6-1 212.7-1 602.1 0 393.9-.3 595-1 604-5.6 72.9-27.3 136.7-64.4 188.9-16.7 23.6-45.7 54.4-68.4 72.8-69.2 56.1-151.9 84.2-247.7 84.2-95.7 0-177.4-27.6-247-83.4-13.6-11-39.6-36.6-51.4-50.6-45.2-53.9-70.2-114-80.8-194.6-1.6-12-1.7-56-2.3-619.4-.5-568.8-.6-607.1-2.3-615.7-8.4-44.6-30.3-67.7-73.5-77.5-9.4-2.1-11.7-2.2-79.7-2.4-38.5-.1-73 .2-76.7.6z"/></svg>