<svg id="Layer_1" data-name="Layer 1" xmlns="http://www.w3.org/2000/svg" viewBox="0 0 209.9 65.69"><defs><style>.cls-1{fill:#5e9cea;}.cls-2{fill:#4b89da;}.cls-3{fill:none;stroke:#000;stroke-miterlimit:10;}</style></defs><title>1500x1500</title><path class="cls-1" d="M91.72,52.22a11.64,11.64,0,0,1-1.48,5.92,10.18,10.18,0,0,1-4,4,12.44,12.44,0,0,1-11.35,0,10.22,10.22,0,0,1-4-4,11.65,11.65,0,0,1-1.49-5.92V33.63a1.28,1.28,0,0,1,1.45-1.45h1.24a1.28,1.28,0,0,1,1.45,1.45v19a7,7,0,1,0,14.08,0v-19A1.28,1.28,0,0,1,89,32.18h1.23a1.28,1.28,0,0,1,1.45,1.45Z" transform="translate(-55.05 -17.16)"/><path class="cls-1" d="M110.38,39.66a11.48,11.48,0,0,1,10.17,6,12.55,12.55,0,0,1,0,11.86,11.47,11.47,0,0,1-10.17,6,10.34,10.34,0,0,1-8-3.48V71.74a1.28,1.28,0,0,1-1.45,1.45H99.8a1.28,1.28,0,0,1-1.45-1.45V41.64a1.28,1.28,0,0,1,1.45-1.45h1.1a1.28,1.28,0,0,1,1.45,1.45v1.5A10.39,10.39,0,0,1,110.38,39.66Zm-.66,20.26a7.89,7.89,0,0,0,5.86-2.43,8.49,8.49,0,0,0,0-11.81,8.27,8.27,0,0,0-10.23-1.18,8.27,8.27,0,0,0-3,3.32v7.59a8.19,8.19,0,0,0,7.37,4.51Z" transform="translate(-55.05 -17.16)"/><path class="cls-2" d="M141.64,59.86a12.87,12.87,0,0,0,7.17-2.25,1.28,1.28,0,0,1,2,.31l.53.75a1.29,1.29,0,0,1-.33,2,16.3,16.3,0,0,1-9.4,2.82,16.69,16.69,0,0,1-6.37-1.23,15.38,15.38,0,0,1-8.57-8.43,16.35,16.35,0,0,1,0-12.54,15.66,15.66,0,0,1,3.41-5.07,15.94,15.94,0,0,1,5.16-3.36,16.69,16.69,0,0,1,6.37-1.23,16.24,16.24,0,0,1,9,2.6,1.26,1.26,0,0,1,.37,2l-.48.73a1.34,1.34,0,0,1-2,.41,12.94,12.94,0,0,0-6.87-2.09,11.43,11.43,0,0,0-8.5,3.57,12,12,0,0,0-3.49,8.71,12,12,0,0,0,3.49,8.71A11.43,11.43,0,0,0,141.64,59.86Z" transform="translate(-55.05 -17.16)"/><path class="cls-2" d="M161,61.53A1.28,1.28,0,0,1,159.53,63h-1.1A1.28,1.28,0,0,1,157,61.53V32.31a1.28,1.28,0,0,1,1.45-1.45h1.1A1.28,1.28,0,0,1,161,32.31V43.69a11.37,11.37,0,0,1,3.24-2.9,8,8,0,0,1,4.15-1.13,8.89,8.89,0,0,1,6.61,2.6A9.13,9.13,0,0,1,177.55,49V61.53A1.29,1.29,0,0,1,176.09,63H175a1.28,1.28,0,0,1-1.45-1.45V49.19a5.72,5.72,0,0,0-5.92-5.94,6,6,0,0,0-3.73,1.33A11.4,11.4,0,0,0,161,47.87Z" transform="translate(-55.05 -17.16)"/><path class="cls-2" d="M186,52.84A7.76,7.76,0,0,0,188.67,58a8,8,0,0,0,5.55,2,9.27,9.27,0,0,0,6.18-2.33,1.39,1.39,0,0,1,2,0l.64.57a1.21,1.21,0,0,1,0,2.05,12.8,12.8,0,0,1-8.78,3.17,13.36,13.36,0,0,1-5.06-.94,11.16,11.16,0,0,1-6.42-6.33,12.13,12.13,0,0,1-.9-4.66,12,12,0,0,1,.91-4.64,11.45,11.45,0,0,1,6.35-6.34,12.18,12.18,0,0,1,4.79-.94,11.78,11.78,0,0,1,6,1.54,10.93,10.93,0,0,1,4.14,4.15,11.38,11.38,0,0,1,1.48,5.73,3.87,3.87,0,0,1,0,.42,1.32,1.32,0,0,1-1.52,1.34Zm8-9.73a7.59,7.59,0,0,0-5,1.83,8,8,0,0,0-2.8,4.58h15.23a7.6,7.6,0,0,0-2.51-4.6A7.2,7.2,0,0,0,194,43.11Z" transform="translate(-55.05 -17.16)"/><path class="cls-2" d="M221.19,63.51a12.6,12.6,0,0,1-6.31-1.61,11.57,11.57,0,0,1-4.42-4.33,12.06,12.06,0,0,1,0-12,11.57,11.57,0,0,1,4.42-4.33,13.12,13.12,0,0,1,13.51.55,1.3,1.3,0,0,1,.33,2l-.49.73a1.26,1.26,0,0,1-2,.33,8.79,8.79,0,0,0-5-1.65,7.9,7.9,0,0,0-5.86,2.43,8.49,8.49,0,0,0,0,11.81,7.9,7.9,0,0,0,5.86,2.43,8.55,8.55,0,0,0,5.24-1.8,1.32,1.32,0,0,1,2,.2L229,59c.6.78.58,1.42-.06,1.93A12.17,12.17,0,0,1,221.19,63.51Z" transform="translate(-55.05 -17.16)"/><path class="cls-2" d="M241.43,52.05h-2.81v9.48A1.28,1.28,0,0,1,237.17,63h-1.1a1.29,1.29,0,0,1-1.46-1.45V32.31a1.29,1.29,0,0,1,1.46-1.45h1.1a1.28,1.28,0,0,1,1.45,1.45V48.59h2.86l5.79-7.51a2.08,2.08,0,0,1,1.77-.89h1.41c.61,0,1,.18,1.18.53a1.22,1.22,0,0,1-.32,1.26l-6.5,8.35,7.79,10.9a1.15,1.15,0,0,1,.26,1.23,1.21,1.21,0,0,1-1.18.52h-1.31a2,2,0,0,1-1.76-.91Z" transform="translate(-55.05 -17.16)"/><rect class="cls-3" x="0.5" y="0.5" width="208.9" height="64.69"/></svg>